<?xml version="1.0" encoding="UTF-8"?>
<!-- Generator: Adobe Illustrator 26.1.0, SVG Export Plug-In . SVG Version: 6.00 Build 0)  -->
<svg xmlns="http://www.w3.org/2000/svg" xmlns:xlink="http://www.w3.org/1999/xlink" version="1.1" id="Layer_1" x="0px" y="0px" width="144.945px" height="640.571px" viewBox="0 0 144.945 640.571" xml:space="preserve">
<path id="_x23_000000" d="M40.814,598.795l32.174-23.76v65.537L40.814,598.795z M76.237,575.035v65.537l32.174-41.776  L76.237,575.035z M72.437,525.947l-29.795,16.449v-33.421l29.795-17.494V525.947z M75.686,491.482v34.466l29.795,16.449v-33.421  L75.686,491.482z M42.642,545.646l31.419,17.987l31.419-17.987l-31.419-17.266L42.642,545.646z M40.002,447.994l32.986-14.627v48.28  L40.002,447.994z M76.237,433.367v48.28l32.986-33.653L76.237,433.367z M76.237,413.161v17.16l26.162,11.397L76.237,413.161z   M72.988,430.322v-17.16l-26.162,28.557L72.988,430.322z M54.058,369.971l11.044,19.05l-24.317-22.877L54.058,369.971z   M73.191,358.969v-26.825l-33.338,30.772l15.038,4.337L73.191,358.969z M84.091,389.021l24.317-22.877l-13.273,3.827L84.091,389.021  z M74.596,361.453l-17.578,7.957l17.578,30.319l17.578-30.319L74.596,361.453z M109.34,362.916l-33.338-30.772v26.825l18.299,8.283  L109.34,362.916z M57.154,276.089l4.996-20.427c3.685-1.341,7.662-2.074,11.81-2.074c4.148,0,8.125,0.733,11.81,2.074l4.996,20.427  l-16.807,9.185L57.154,276.089z M89.514,257.292l4.624,18.906l14.266,14.157c0.048-0.743,0.08-1.489,0.08-2.244  C108.485,274.642,100.765,262.982,89.514,257.292z M75.585,288.089v22.064l20.248,4.669c6.174-5.062,10.553-12.223,12.065-20.391  l-15.596-15.477L75.585,288.089z M55.603,317.346c5.319,3.347,11.61,5.29,18.358,5.29c6.748,0,13.039-1.943,18.358-5.29  l-18.358-4.233L55.603,317.346z M58.407,257.292c-11.252,5.69-18.971,17.35-18.971,30.82c0,0.755,0.033,1.501,0.08,2.244  l14.266-14.157L58.407,257.292z M72.335,288.089l-16.716-9.136l-15.596,15.477c1.512,8.169,5.891,15.33,12.065,20.391l20.247-4.669  V288.089z M51.72,219.98l-10.413,5.873v-30.239L51.72,219.98z M72.111,185.63l-30.287,3.421l12.042,28.179L72.111,185.63z   M93.585,219.111l-18.639-32.284l-18.639,32.284H93.585z M42.863,228.483l26.113,15.076l-15.731-20.933L42.863,228.483z   M73.419,170.202l-26.285,15.175l26.285-2.969V170.202z M76.473,170.202v12.207l26.285,2.968L76.473,170.202z M56.72,222.165  l18.226,24.255l18.226-24.255H56.72z M96.026,217.23l12.042-28.179l-30.287-3.421L96.026,217.23z M80.916,243.559l26.113-15.076  l-10.382-5.856L80.916,243.559z M98.173,219.98l10.413,5.873v-30.239L98.173,219.98z M72.472,30.374  c-12.881,0-24.892,2.959-24.892,2.959c0-19.153,8.806-27.531,15.942-31.175c5.637-2.878,12.262-2.878,17.899,0  c7.137,3.644,15.942,12.021,15.942,31.175C97.364,33.333,85.353,30.374,72.472,30.374z M72.472,34.436  c-7.833,0-17.407,1.683-17.407,1.683c4.616,3.409,10.444,13.925,10.444,13.925h13.926c0,0,5.828-10.516,10.444-13.925  C89.879,36.119,80.305,34.436,72.472,34.436z M63.334,52.655v6.441h18.277v-6.441H63.334z M89.879,68.93  c0-2.355-1.909-4.265-4.265-4.265H59.33c-2.355,0-4.265,1.909-4.265,4.265c0,2.355,1.909,4.265,4.265,4.265h26.284  C87.97,73.195,89.879,71.286,89.879,68.93z M83.517,78.765H62.428v5.57h21.089V78.765z M83.517,103.019c0,0,1.567-13.113-4.7-13.113  H66.131c-2.445,0-4.006,2.143-3.703,4.569v2.394C62.428,96.868,77.972,95.519,83.517,103.019z M99.611,145.964  c0.279-1.401-0.218-2.836-1.279-3.792c-2.022-1.823-5.16-5.232-6.753-9.955c-0.197-0.584-0.938-0.756-1.361-0.308  c-1.699,1.797-5.581,5.17-10.775,5.17c-7.079,0-12.127-4.178-12.127-11.837c0-7.659,8.587-9.052,12.127-7.485  c3.539,1.567,4.294,7.485,0,7.485c-1.792,0-2.849-0.394-3.474-0.853c-0.635-0.467-1.524-0.112-1.662,0.664  c-0.334,1.881,0.192,4.518,5.136,5.585c8.065,1.741,12.759-12.794,6.362-21.541c-6.548-8.954-13.629-9.733-23.377-9.733  c0,0,0.305,34.639-11.972,42.911c-1.602,1.08-2.581,2.878-2.553,4.81c0.04,2.809-0.735,6.776-4.715,9.558  c-0.204,0.143-0.219,0.438-0.017,0.583c1.198,0.862,5.139,3.364,12.509,5.027c0.235,0.053,0.457-0.135,0.441-0.375  c-0.024-0.373-0.038-0.748-0.038-1.127c0-10.19,8.261-18.451,18.451-18.451c10.19,0,18.451,8.261,18.451,18.451  c0,0.24-0.009,0.477-0.018,0.715c2.765-0.55,5.645-1.197,8.673-1.98c0.234-0.06,0.35-0.328,0.224-0.534  C100.989,157.526,98.311,152.484,99.611,145.964z M27.326,139.363c-0.364-0.192-0.81-0.026-0.958,0.358  c-0.602,1.568-2.186,5.262-4.347,7.018c-2.785,2.263-7.224,1.741-9.835-1.218c-2.611-2.959-0.305-8.878,2.829-7.833  c1.662,0.554,2.369,1.88,2.666,3.002c0.134,0.505,0.841,0.546,1.027,0.057c0.837-2.193,1.675-5.975-0.952-8.721  c-2.392-2.501-5.562-3.292-7.668-3.53c-1.15-0.13-2.12,0.839-1.998,1.99c1.636,15.448-3.874,22.261-7.097,24.868  c-1.112,0.9-1.324,2.506-0.461,3.646c0.857,1.131,2.45,1.381,3.609,0.563c3.369-2.378,10.127-6.814,14.399-7.383  c5.875-0.783,17.886,2.35,17.886,2.35c5.875-1.567,5.579-8.877,5.579-8.877C37.161,144.449,29.629,140.579,27.326,139.363z   M7.926,125.907c1.501-0.474,4.647-1.354,7.173-1.298c0.282,0.006,0.526-0.178,0.577-0.456c0.334-1.807,1.255-8.177-2.098-9.443  c-3.751-1.417-6.304,3.552-6.514,10.549C7.051,125.712,7.495,126.044,7.926,125.907z M143.952,155.353  c-3.223-2.607-8.733-9.42-7.097-24.868c0.122-1.151-0.848-2.119-1.998-1.99c-2.106,0.237-5.277,1.029-7.668,3.53  c-2.627,2.746-1.789,6.528-0.952,8.721c0.186,0.488,0.893,0.448,1.027-0.057c0.297-1.123,1.004-2.448,2.666-3.002  c3.133-1.044,5.44,4.874,2.829,7.833c-2.611,2.959-7.05,3.481-9.835,1.218c-2.161-1.756-3.745-5.45-4.347-7.018  c-0.148-0.385-0.594-0.551-0.958-0.358c-2.303,1.217-9.835,5.086-14.678,6.288c0,0-0.295,7.311,5.58,8.877  c0,0,12.011-3.133,17.886-2.35c4.272,0.57,11.03,5.006,14.399,7.383c1.159,0.818,2.752,0.568,3.609-0.563  C145.276,157.859,145.064,156.253,143.952,155.353z M129.846,124.609c2.526-0.056,5.672,0.824,7.173,1.298  c0.431,0.136,0.875-0.196,0.861-0.648c-0.21-6.997-2.763-11.966-6.514-10.549c-3.353,1.267-2.432,7.636-2.098,9.443  C129.32,124.431,129.564,124.616,129.846,124.609z"></path>
<g>
</g>
<g>
</g>
<g>
</g>
<g>
</g>
<g>
</g>
</svg>
